# xmcd
#
# Track frame offsets: 
#        150
#        4400
#        17362
#        42155
#        68337
#        108132
#        123292
#
# Disc length: 2185 seconds
#
# Revision: 1
# Processed by: cddbd v1.5.1PL0 Copyright (c) Steve Scherf et al.
# Submitted via: ExactAudioCopy v0.95a5
#
DISCID=45088707
DTITLE=Racebannon - Satan's Kickin' Yr Dick In
DYEAR=1900
DGENRE=Fuckin' Awesome
TTITLE0=Satan's Kickin' Yr Dick In pt. i
TTITLE1=Satan's Kickin' Yr Dick In pt. ii
TTITLE2=Satan's Kickin' Yr Dick In pt. iii
TTITLE3=Satan's Kickin' Yr Dick In pt. iv
TTITLE4=Satan's Kickin' Yr Dick In pt. v
TTITLE5=Satan's Kickin' Yr Dick In pt. vi
TTITLE6=Satan's Kickin' Yr Dick In pt. vii
EXTD=
EXTT0=
EXTT1=
EXTT2=
EXTT3=
EXTT4=
EXTT5=
EXTT6=
PLAYORDER=
